<svg xmlns="http://www.w3.org/2000/svg" xml:space="preserve" fill-rule="evenodd" stroke-linejoin="round" stroke-miterlimit="2" clip-rule="evenodd" viewBox="0 0 390 290"><g fill-rule="nonzero"><path d="M-.002 193.73h8.95l13.246 39.012 13.161-39.012h8.853v46.139H38.27v-27.222c0-.965.022-2.52.065-4.663.043-2.197.064-4.555.064-7.02L25.243 239.87h-6.19L5.808 200.964v1.394c0 1.125.027 2.893.075 5.198.054 2.304.08 4.019.08 5.09v27.223H-.002V193.73ZM46.925 193.73h7.288l13.247 22.185 13.252-22.185h7.314L70.6 221.274v18.595H64.35v-18.595L46.925 193.73Z"/></g><g fill-rule="nonzero"><path d="M122.69 235.086c-3.457 3.161-7.872 4.77-13.252 4.77-6.656 0-11.891-2.144-15.696-6.431-3.81-4.287-5.718-10.182-5.718-17.63 0-8.092 2.165-14.309 6.5-18.703 3.767-3.804 8.564-5.68 14.383-5.68 7.786 0 13.477 2.519 17.078 7.663 1.989 2.84 3.055 5.734 3.205 8.628h-9.673c-.627-2.198-1.43-3.912-2.416-5.038-1.758-1.982-4.368-3-7.819-3-3.515 0-6.29 1.393-8.322 4.233-2.03 2.84-3.044 6.86-3.044 12.057 0 5.198 1.072 9.056 3.216 11.682 2.148 2.572 4.876 3.858 8.182 3.858 3.392 0 5.975-1.125 7.754-3.322.987-1.179 1.801-3 2.45-5.359h9.576c-.836 5.037-2.97 9.11-6.404 12.272ZM153.728 239.855c-6.613 0-11.666-1.822-15.166-5.412-4.688-4.394-7.03-10.771-7.03-19.077 0-8.467 2.342-14.844 7.03-19.078 3.5-3.644 8.553-5.412 15.166-5.412 6.618 0 11.671 1.768 15.17 5.412 4.668 4.234 6.999 10.61 6.999 19.078 0 8.306-2.331 14.683-6.999 19.077-3.499 3.59-8.552 5.412-15.17 5.412Zm9.142-12.432c2.24-2.84 3.36-6.86 3.36-12.057 0-5.198-1.126-9.217-3.376-12.058-2.251-2.84-5.295-4.233-9.126-4.233-3.826 0-6.886 1.393-9.164 4.233-2.283 2.84-3.424 6.86-3.424 12.058 0 5.198 1.141 9.217 3.424 12.057 2.278 2.84 5.338 4.233 9.164 4.233 3.831 0 6.88-1.393 9.142-4.233ZM188.913 238.569h-9.008v-46.3h14.067l8.413 36.386 8.354-36.386h13.906v46.3h-9.008v-31.295c0-.911.011-2.197.032-3.805.022-1.607.033-2.894.033-3.751l-8.762 38.851h-9.388l-8.698-38.851c0 .857.011 2.144.032 3.751.022 1.608.027 2.894.027 3.805v31.295ZM250.067 221.903h-9.828v16.666h-9.608v-46.3h20.16c4.646 0 8.354 1.18 11.114 3.59 2.765 2.412 4.147 6.056 4.147 11.093 0 5.466-1.382 9.325-4.147 11.575-2.76 2.25-6.71 3.376-11.838 3.376Zm4.523-9.645c1.254-1.072 1.886-2.84 1.886-5.252 0-2.411-.637-4.126-1.902-5.144-1.265-1.019-3.038-1.555-5.321-1.555h-9.014v13.665h9.014c2.283 0 4.062-.59 5.337-1.714ZM292.685 229.03h-17.051l-3.205 9.539h-10.106l16.515-46.3h10.927l16.387 46.3h-10.487l-2.98-9.539Zm-2.7-7.93-5.777-18.22-5.97 18.22h11.747ZM346.24 238.569h-9.672l-18.9-32.903v32.903h-9.013v-46.3h10.138l18.434 32.314v-32.314h9.014v46.3ZM389.4 192.27l-15.481 28.883v17.416h-9.673v-17.416l-16.012-28.884h11.398l9.609 20.15 9.2-20.15h10.96Z"/></g><g fill-rule="nonzero"><path d="M110.417 258.884c.049-1.35.282-2.332.702-2.945.755-1.105 2.21-1.657 4.37-1.657h.629c.214.03.46.03.736.061v2.946c-.338 0-.58-.03-.727-.03h-.424c-.982 0-1.57.245-1.76.736-.194.521-.29 1.81-.29 3.896h3.201v2.547h-3.237v16.63h-3.2v-16.63h-2.68v-2.547h2.68v-3.007ZM118.087 261.8h3.075v3.344c.252-.645.868-1.442 1.85-2.363.985-.951 2.117-1.411 3.4-1.411.058 0 .16 0 .304.03.144 0 .39.031.74.062v3.436c-.194-.061-.372-.061-.532-.092h-.53c-1.63 0-2.885.522-3.76 1.565-.874 1.043-1.313 2.24-1.313 3.62v11.078h-3.234v-19.27ZM136.436 261.37c1.366 0 2.691.337 3.974.982 1.282.613 2.258 1.472 2.93 2.485.647.951 1.077 2.086 1.295 3.375.19.89.288 2.301.288 4.265H130.81c.058 1.933.521 3.529 1.384 4.695.862 1.196 2.2 1.78 4.01 1.78 1.688 0 3.038-.553 4.044-1.688a5.552 5.552 0 0 0 1.224-2.24h3.182c-.086.706-.365 1.503-.837 2.363a9.344 9.344 0 0 1-1.59 2.147c-.985.952-2.2 1.596-3.651 1.933-.78.185-1.66.277-2.642.277-2.396 0-4.43-.86-6.097-2.608-1.663-1.75-2.497-4.204-2.497-7.334 0-3.099.837-5.584 2.516-7.517 1.678-1.933 3.872-2.915 6.581-2.915Zm5.161 8.53c-.132-1.412-.439-2.516-.917-3.375-.887-1.535-2.369-2.332-4.443-2.332-1.485 0-2.731.552-3.737 1.626-1.007 1.074-1.54 2.424-1.602 4.08h10.7ZM155.073 261.37c1.366 0 2.691.337 3.974.982 1.283.613 2.258 1.472 2.93 2.485.648.951 1.077 2.086 1.295 3.375.19.89.285 2.301.285 4.265h-14.11c.057 1.933.52 3.529 1.383 4.695.862 1.196 2.2 1.78 4.01 1.78 1.688 0 3.038-.553 4.044-1.688a5.546 5.546 0 0 0 1.222-2.24h3.181c-.082.706-.362 1.503-.834 2.363a9.264 9.264 0 0 1-1.593 2.147c-.981.952-2.197 1.596-3.648 1.933-.78.185-1.66.277-2.642.277-2.4 0-4.43-.86-6.097-2.608-1.666-1.75-2.497-4.204-2.497-7.334 0-3.099.837-5.584 2.516-7.517 1.678-1.933 3.872-2.915 6.581-2.915Zm5.158 8.53c-.132-1.412-.435-2.516-.914-3.375-.89-1.535-2.369-2.332-4.443-2.332-1.485 0-2.73.552-3.737 1.626-1.01 1.074-1.54 2.424-1.602 4.08h10.696ZM165.782 254.65h3.237v26.41h-3.237zM179.672 278.982c2.145 0 3.615-.828 4.413-2.455.798-1.595 1.196-3.405 1.196-5.4 0-1.81-.288-3.252-.865-4.388-.908-1.78-2.48-2.67-4.71-2.67-1.976 0-3.415.768-4.314 2.271-.899 1.504-1.347 3.345-1.347 5.462 0 2.056.448 3.774 1.347 5.124.9 1.381 2.326 2.056 4.28 2.056Zm.126-17.735c2.48 0 4.578.828 6.29 2.485 1.716 1.657 2.572 4.081 2.572 7.303 0 3.1-.755 5.676-2.265 7.702-1.51 2.025-3.854 3.037-7.03 3.037-2.647 0-4.752-.89-6.311-2.7-1.559-1.78-2.335-4.204-2.335-7.21 0-3.253.82-5.83 2.46-7.733 1.642-1.933 3.849-2.884 6.62-2.884ZM197.463 261.462c1.51 0 2.829.368 3.955 1.135.61.399 1.233 1.013 1.869 1.81v-2.424h2.985v17.52c0 2.455-.359 4.358-1.08 5.8-1.34 2.608-3.875 3.897-7.603 3.897-2.075 0-3.817-.46-5.232-1.381-1.414-.92-2.206-2.393-2.375-4.357h3.293c.153.859.466 1.534.932 1.994.734.706 1.884 1.074 3.452 1.074 2.483 0 4.106-.859 4.873-2.639.457-1.012.666-2.853.629-5.492-.648.982-1.424 1.688-2.335 2.179-.912.49-2.117.736-3.615.736-2.086 0-3.912-.767-5.474-2.24-1.565-1.473-2.347-3.927-2.347-7.333 0-3.222.789-5.738 2.366-7.548 1.574-1.81 3.476-2.731 5.707-2.731Zm5.824 9.88c0-2.363-.491-4.142-1.473-5.278-.982-1.166-2.237-1.749-3.759-1.749-2.277 0-3.835 1.074-4.673 3.222-.445 1.135-.666 2.608-.666 4.48 0 2.148.442 3.805 1.323 4.94.88 1.135 2.065 1.688 3.55 1.688 2.325 0 3.96-1.044 4.909-3.13.525-1.197.789-2.578.789-4.173ZM216.944 278.982c2.145 0 3.617-.828 4.415-2.455.795-1.595 1.194-3.405 1.194-5.4 0-1.81-.286-3.252-.862-4.388-.912-1.78-2.483-2.67-4.71-2.67-1.98 0-3.415.768-4.314 2.271-.9 1.504-1.35 3.345-1.35 5.462 0 2.056.45 3.774 1.35 5.124.899 1.381 2.322 2.056 4.277 2.056Zm.126-17.735c2.482 0 4.578.828 6.293 2.485 1.715 1.657 2.571 4.081 2.571 7.303 0 3.1-.755 5.676-2.264 7.702-1.513 2.025-3.854 3.037-7.03 3.037-2.651 0-4.753-.89-6.312-2.7-1.558-1.78-2.338-4.204-2.338-7.21 0-3.253.823-5.83 2.464-7.733 1.642-1.933 3.848-2.884 6.616-2.884ZM228.714 277.141h3.759v3.918h-3.759zM236.33 261.8h3.2v2.73c.767-.92 1.46-1.626 2.083-2.056 1.068-.736 2.28-1.104 3.633-1.104 1.535 0 2.768.399 3.704 1.135.528.43 1.006 1.074 1.439 1.902.718-1.012 1.565-1.78 2.534-2.27.97-.522 2.062-.767 3.271-.767 2.59 0 4.351.95 5.287 2.823.503 1.012.755 2.362.755 4.05v12.826h-3.363V267.69c0-1.29-.32-2.179-.96-2.64-.642-.49-1.424-.736-2.348-.736-1.27 0-2.362.43-3.28 1.289-.917.86-1.374 2.27-1.374 4.265v11.2h-3.293v-12.58c0-1.29-.153-2.24-.466-2.854-.491-.89-1.409-1.35-2.75-1.35-1.224 0-2.334.49-3.335 1.442-1 .92-1.503 2.639-1.503 5.124v10.218h-3.234v-19.27ZM273.178 261.37c1.365 0 2.69.337 3.973.982 1.283.613 2.259 1.472 2.93 2.485.648.951 1.08 2.086 1.295 3.375.19.89.289 2.301.289 4.265H267.55c.062 1.933.522 3.529 1.384 4.695.865 1.196 2.2 1.78 4.01 1.78 1.691 0 3.038-.553 4.045-1.688a5.516 5.516 0 0 0 1.224-2.24h3.182c-.083.706-.362 1.503-.838 2.363a9.344 9.344 0 0 1-1.59 2.147c-.981.952-2.2 1.596-3.65 1.933-.78.185-1.66.277-2.643.277-2.396 0-4.427-.86-6.093-2.608-1.666-1.75-2.501-4.204-2.501-7.334 0-3.099.84-5.584 2.52-7.517 1.674-1.933 3.868-2.915 6.578-2.915Zm5.16 8.53c-.131-1.412-.438-2.516-.917-3.375-.887-1.535-2.369-2.332-4.44-2.332-1.488 0-2.734.552-3.74 1.626-1.006 1.074-1.54 2.424-1.602 4.08h10.7Z"/></g><path d="M87.587 3.494C84.842 13.709 85.514 22.04 89.78 30.71c6.4 13.006 18.948 21.746 40.897 28.485 13.805 4.24 31.66 8.105 41.45 8.976l2.93.26v11.435c0 9.41-.104 11.729-.59 13.09-2.112 5.914-.292 13.065 4.56 17.917 2.786 2.785 5.89 4.474 10.062 5.474 16.24 3.893 30.305-8.937 25.863-23.593-.444-1.464-.563-4.226-.563-13.066v-11.21l4.186-.465c2.303-.256 6.94-.98 10.306-1.609 25.421-4.749 44.377-11.087 55.468-18.545 7.15-4.809 13.713-12.37 16.549-19.063 2.149-5.073 2.555-7.334 2.55-14.172-.007-5.674-.105-6.6-1.087-10.211-1.15-4.228-1.745-5.438-1.745-3.549 0 2.873-2.42 8.425-5.504 12.625-12.77 17.397-48.164 35.209-80.723 40.625-3.224.537-7.266 1.104-8.981 1.26l-3.12.283-.095 21.241-.095 21.241-1.135 1.606c-2.763 3.912-8.085 4.41-11.517 1.08-.836-.812-1.656-2.067-1.882-2.88-.259-.934-.401-8.686-.402-21.96l-.003-20.517h-1.304c-2.143 0-9.72-1.08-14.868-2.119-36.26-7.32-69.538-26-79.091-44.398-1.281-2.468-1.849-4.014-3.044-8.293-.201-.722-.472-.115-1.265 2.836m5.161 44.473c.972 9.303 5.933 16.955 13.2 20.36 1.758.824 4.964 1.93 7.126 2.456 8.181 1.995 37.083 5.537 54.892 6.726 2.148.144 2.175.133 2.175-.878 0-.563.102-1.532.226-2.153l.225-1.129-2.4-.266c-4.022-.446-17.014-3.133-26.652-5.511-23.047-5.687-38.872-12.379-46.804-19.791l-2.225-2.08.237 2.266m202.12-.272c-5.79 5.46-17.778 11.376-32.12 15.853-11.563 3.61-29.762 7.844-42.553 9.902-.875.14-1.157.365-1.062.843.072.359.236 1.31.366 2.113l.235 1.46 3.284-.26c5.549-.439 21.107-2.067 27.488-2.876 28.02-3.551 34.155-5.338 39.986-11.648 2.462-2.665 4.42-6.428 5.538-10.64.718-2.707 1.399-6.822 1.124-6.793-.072.008-1.1.928-2.286 2.046m-190.73 27.477c.488 1.651 3.295 6.298 4.943 8.181 1.962 2.243 5.196 4.032 8.43 4.662 4.472.872 17.735.034 42.608-2.69 9.664-1.06 9.428-.988 9.569-2.886l.114-1.54-2.762-.224c-1.518-.124-5.314-.324-8.434-.446-8.514-.33-31.873-1.645-37.252-2.096-7.264-.609-12.19-1.658-16.778-3.575-.608-.254-.669-.169-.437.614M284.7 74.75c-1.306.764-7.197 2.218-11.314 2.793-5.919.825-23.33 1.947-48.125 3.099l-5.2.242v1.633c0 1.957-.662 1.753 9.076 2.81 35.185 3.818 42.107 3.944 47.752.872 2.994-1.63 6.624-6.126 8.399-10.404.6-1.446.475-1.667-.588-1.045M165.224 88.068c-8.349 1.41-30.827 4.923-39.481 6.17-4.97.717-9.115 1.38-9.209 1.474-.094.094 1.18 1.541 2.83 3.216 4.773 4.844 8.358 5.847 15.05 4.209 5.627-1.378 34.037-11.059 34.856-11.878.086-.087.105-.99.041-2.01l-.116-1.852-3.97.67m54.914 1.337.112 2.07 4.916 1.862c7.296 2.766 25.603 8.852 29.46 9.795 4.33 1.058 7.94.929 10.629-.38 1.04-.507 3.336-2.317 5.102-4.024l3.211-3.102-1.32-.212c-.726-.117-5.065-.735-9.64-1.374-6.858-.957-26.122-3.979-39.634-6.215l-2.948-.489.112 2.07m-54.347 6.915c-4.64 1.944-22.843 9.041-29.395 11.461-3.478 1.285-6.329 2.537-6.335 2.782-.018.845 7.75 7.378 12.798 10.763 4.412 2.959 5.133 3.325 5.673 2.878 4.775-3.951 16.07-14.232 19.11-17.395l1.851-1.926-.518-1.922c-.285-1.056-.491-3.24-.458-4.852.034-1.612.03-2.924-.009-2.914a189.7 189.7 0 0 0-2.717 1.125m55.268 1.57c.124 1.821-.004 3.484-.373 4.847l-.56 2.075 1.763 1.89c3.117 3.336 15.915 15.122 19.054 17.545.562.434 1.04.257 3.592-1.331 5.667-3.525 15.236-11.198 15.236-12.218 0-.152-2-1.013-4.444-1.912-3.264-1.2-29.904-11.76-34.01-13.481-.328-.138-.396.544-.258 2.585m-53.212 13.038c-1.547 1.575-5.791 5.671-9.431 9.104-3.64 3.433-6.673 6.386-6.74 6.562-.167.446 7.565 4.268 12.695 6.275 5.571 2.178 12.76 4.115 18.502 4.985l4.602.697.21-1.17c.624-3.46 2.14-14.782 2.044-15.26-.07-.348-1.175-.824-2.949-1.269-4.58-1.148-8.126-3.1-11.193-6.164-1.477-1.474-3.189-3.567-3.806-4.651l-1.122-1.971-2.812 2.862m49.649-.52c-1.428 2.53-4.668 5.764-7.446 7.433-2.154 1.294-7.634 3.427-8.831 3.438-1.547.014-1.561.306-.418 8.509.608 4.365 1.106 8.064 1.106 8.22.002 1.24 12.681-1.354 20.936-4.283 4.683-1.662 14.993-6.53 14.993-7.08 0-.185-.894-1.084-1.986-1.996-1.092-.913-5.319-4.94-9.394-8.947-4.075-4.008-7.505-7.287-7.622-7.287-.118 0-.72.897-1.338 1.993m-24.79 11.496c-.14.138-.253.947-.253 1.796 0 .85-.428 5.714-.95 10.81-.528 5.156-.845 10.02-.714 10.968.568 4.118 3.145 13.626 3.926 14.487.484.533 2.439-5.463 3.599-11.046.81-3.9.774-5.686-.342-16.843-.54-5.394-.98-9.947-.98-10.116 0-.368-3.924-.42-4.287-.056"/></svg>